<svg width="366" height="364" viewBox="0 0 366 364" fill="none" xmlns="http://www.w3.org/2000/svg">
<path fill-rule="evenodd" clip-rule="evenodd" d="M182.961 140.219C184.008 134.826 185.705 131.32 187.621 131.32C189.536 131.32 191.233 134.825 192.28 140.218C196.098 135.667 199.56 133.209 201.3 134.214C204.055 135.805 201.453 145.469 195.489 155.8C194.97 156.698 194.443 157.571 193.912 158.417C196.732 165.16 197.522 170.482 195.54 171.626C194.538 172.205 192.966 171.636 191.084 170.181C190.12 172.905 188.921 174.52 187.621 174.52C186.32 174.52 185.121 172.905 184.157 170.18C182.275 171.636 180.702 172.205 179.7 171.626C177.718 170.482 178.509 165.16 181.329 158.417C180.797 157.572 180.27 156.698 179.752 155.8C173.787 145.469 171.185 135.805 173.94 134.214C175.681 133.209 179.143 135.667 182.961 140.219Z" fill="#27C527"/>
<path d="M225.178 161.561C223.133 206.099 209.533 238.453 197.992 256.641C193.088 264.37 182.87 264.594 178.214 256.713C164.474 233.46 151.804 190.468 150.646 160.716C150.412 154.695 155.444 150.04 161.47 150.04L213.92 150.04C220.283 150.04 225.469 155.205 225.178 161.561Z" fill="#F98D0B"/>
<circle cx="204.56" cy="191.8" r="3.6" fill="#FFA63C"/>
<circle cx="171.44" cy="191.8" r="3.6" fill="#FFA63C"/>
<path d="M188 201.88C193.17 201.88 197.36 197.689 197.36 192.52H178.64C178.64 197.689 182.831 201.88 188 201.88Z" fill="black"/>
<path d="M195.985 185.32L193.04 188.2L196.64 189.463" stroke="black" stroke-width="1.44" stroke-linecap="round"/>
<path d="M180.015 185.32L182.96 188.2L179.36 189.463" stroke="black" stroke-width="1.44" stroke-linecap="round"/>
<path fill-rule="evenodd" clip-rule="evenodd" d="M357.985 188.478C359.848 189.048 361.021 189.777 360.95 190.452C360.878 191.128 359.579 191.596 357.638 191.764C359.101 193.28 359.839 194.592 359.42 195.169C358.757 196.081 355.445 194.804 352.024 192.316C351.727 192.1 351.439 191.882 351.16 191.663C348.678 192.406 346.771 192.487 346.442 191.746C346.275 191.371 346.534 190.838 347.117 190.228C346.192 189.787 345.667 189.304 345.716 188.845C345.764 188.387 346.378 188.024 347.375 187.785C346.932 187.067 346.79 186.492 347.031 186.16C347.508 185.504 349.355 185.98 351.628 187.226C351.946 187.07 352.274 186.916 352.61 186.767C356.475 185.048 359.98 184.49 360.438 185.521C360.728 186.172 359.732 187.301 357.985 188.478Z" fill="#27C527"/>
<path d="M348.888 202.571C333.258 200.193 322.355 194.193 316.371 189.447C313.828 187.43 314.129 183.819 317.081 182.47C325.792 178.49 341.424 175.622 351.959 176.32C354.091 176.462 355.545 178.409 355.321 180.534L353.369 199.03C353.133 201.273 351.118 202.91 348.888 202.571Z" fill="#F98D0B"/>
<circle cx="338.991" cy="194.175" r="1.27652" transform="rotate(96.0224 338.991 194.175)" fill="#FFA63C"/>
<circle cx="340.224" cy="182.496" r="1.27652" transform="rotate(96.0224 340.224 182.496)" fill="#FFA63C"/>
<path d="M336.053 187.961C335.861 189.784 337.183 191.417 339.006 191.61L339.702 185.008C337.879 184.816 336.246 186.138 336.053 187.961Z" fill="black"/>
<path d="M341.595 191.393L340.689 190.247L340.11 191.469" stroke="black" stroke-width="0.510608" stroke-linecap="round"/>
<path d="M342.19 185.761L341.064 186.693L340.753 185.376" stroke="black" stroke-width="0.510608" stroke-linecap="round"/>
<path fill-rule="evenodd" clip-rule="evenodd" d="M92.4752 343.521C90.9034 345.442 89.4776 346.473 88.7158 346.062C87.954 345.652 88.0298 343.894 88.7683 341.525C86.2749 342.518 84.3713 342.754 83.8943 341.981C83.1391 340.759 86.244 337.472 90.8293 334.64C91.2279 334.394 91.6245 334.159 92.017 333.937C92.3395 330.651 93.1651 328.364 94.1985 328.334C94.7208 328.318 95.2244 328.881 95.6614 329.863C96.6283 328.986 97.4513 328.6 97.9684 328.879C98.4856 329.157 98.6167 330.057 98.4166 331.347C99.4771 331.171 100.224 331.282 100.499 331.726C101.042 332.606 99.588 334.554 97.0221 336.632C97.0525 337.082 97.075 337.542 97.0889 338.01C97.2487 343.397 96.2137 347.799 94.7772 347.841C93.8696 347.868 93.0189 346.149 92.4752 343.521Z" fill="#27C527"/>
<path d="M80.2537 325.99C90.6063 308.712 102.945 298.755 111.432 293.992C115.038 291.969 119.15 294.068 119.314 298.2C119.799 310.392 115.631 330.206 109.719 342.289C108.522 344.734 105.524 345.508 103.127 344.217L82.264 332.983C79.7332 331.621 78.7764 328.455 80.2537 325.99Z" fill="#F98D0B"/>
<circle cx="94.9309" cy="318.377" r="1.62636" transform="rotate(-151.699 94.9309 318.377)" fill="#FFA63C"/>
<circle cx="108.105" cy="325.471" r="1.62636" transform="rotate(-151.699 108.105 325.471)" fill="#FFA63C"/>
<path d="M103.677 317.915C101.621 316.808 99.0565 317.577 97.9494 319.633L105.396 323.643C106.503 321.587 105.733 319.022 103.677 317.915Z" fill="black"/>
<path d="M96.9534 322.791L98.7418 322.277L97.5804 321.003" stroke="black" stroke-width="0.650543" stroke-linecap="round"/>
<path d="M103.306 326.212L102.752 324.436L104.454 324.704" stroke="black" stroke-width="0.650543" stroke-linecap="round"/>
<path fill-rule="evenodd" clip-rule="evenodd" d="M277.187 19.9427C278.786 18.0447 280.227 17.0346 280.983 17.4558C281.739 17.877 281.637 19.6335 280.864 21.9921C283.372 21.0356 285.279 20.827 285.745 21.6063C286.482 22.8398 283.33 26.0814 278.704 28.8466C278.302 29.0869 277.902 29.3158 277.506 29.5325C277.136 32.8136 276.278 35.0876 275.244 35.1033C274.721 35.1112 274.226 34.5409 273.803 33.5527C272.824 34.4158 271.995 34.7894 271.482 34.5035C270.969 34.2175 270.851 33.3164 271.07 32.0293C270.007 32.1896 269.261 32.0683 268.993 31.6197C268.463 30.7324 269.945 28.8059 272.541 26.7652C272.517 26.3147 272.501 25.8541 272.494 25.3857C272.412 19.9971 273.511 15.611 274.948 15.5892C275.856 15.5754 276.681 17.3069 277.187 19.9427Z" fill="#27C527"/>
<path d="M289.152 37.649C278.55 54.7752 266.068 64.5519 257.514 69.1911C253.879 71.1624 249.797 69.0037 249.693 64.87C249.385 52.6721 253.84 32.9202 259.926 20.9246C261.158 18.4969 264.167 17.7668 266.545 19.092L287.243 30.6269C289.754 32.0261 290.665 35.2051 289.152 37.649Z" fill="#F98D0B"/>
<circle cx="274.366" cy="45.0481" r="1.62636" transform="rotate(29.1308 274.366 45.0481)" fill="#FFA63C"/>
<circle cx="261.296" cy="37.764" r="1.62636" transform="rotate(29.1308 261.296 37.764)" fill="#FFA63C"/>
<path d="M265.614 45.3834C267.654 46.5202 270.229 45.7881 271.366 43.7482L263.979 39.6312C262.842 41.6712 263.574 44.2465 265.614 45.3834Z" fill="black"/>
<path d="M272.407 40.605L270.612 41.0937L271.755 42.3839" stroke="black" stroke-width="0.650543" stroke-linecap="round"/>
<path d="M266.104 37.0926L266.633 38.8769L264.935 38.5837" stroke="black" stroke-width="0.650543" stroke-linecap="round"/>
<path fill-rule="evenodd" clip-rule="evenodd" d="M102.311 67.7922C102.101 66.1258 102.259 64.9458 102.815 64.763C103.371 64.5802 104.199 65.4364 105.018 66.9029C105.692 65.2166 106.463 64.1722 107.065 64.298C108.017 64.497 108.183 67.5523 107.437 71.1222C107.372 71.4325 107.302 71.7365 107.228 72.0327C108.691 73.722 109.428 75.1924 108.962 75.7139C108.726 75.9775 108.215 75.9623 107.53 75.7193C107.51 76.6026 107.316 77.1861 106.938 77.3102C106.56 77.4343 106.058 77.0796 105.518 76.3803C105.11 76.9826 104.708 77.2979 104.361 77.2255C103.677 77.0823 103.398 75.4611 103.574 73.2336C103.339 73.0387 103.102 72.8353 102.866 72.624C100.148 70.1926 98.4697 67.6339 99.1181 66.909C99.5277 66.4511 100.768 66.8346 102.311 67.7922Z" fill="#27C527"/>
<path d="M116.61 69.9621C120.266 83.0932 119.404 93.7881 117.787 100.172C117.101 102.885 114.154 103.925 112.05 102.081C105.84 96.6381 98.0575 85.3605 94.8819 76.8295C94.2392 75.1031 95.2566 73.2708 97.0068 72.6958L112.241 67.6903C114.088 67.0831 116.088 68.0883 116.61 69.9621Z" fill="#F98D0B"/>
<circle cx="113.508" cy="80.7127" r="1.1006" transform="rotate(-18.1893 113.508 80.7127)" fill="#FFA63C"/>
<circle cx="103.888" cy="83.8732" r="1.1006" transform="rotate(-18.1893 103.888 83.8732)" fill="#FFA63C"/>
<path d="M109.659 85.2205C111.161 84.7272 111.978 83.1101 111.485 81.6087L106.048 83.3952C106.541 84.8966 108.158 85.7139 109.659 85.2205Z" fill="black"/>
<path d="M110.398 79.6488L109.818 80.7664L110.984 80.7897" stroke="black" stroke-width="0.440239" stroke-linecap="round"/>
<path d="M105.76 81.1729L106.89 81.7283L105.965 82.4388" stroke="black" stroke-width="0.440239" stroke-linecap="round"/>
<path fill-rule="evenodd" clip-rule="evenodd" d="M325.997 313.78C327.097 315.049 327.62 316.119 327.259 316.579C326.897 317.04 325.734 316.787 324.239 316.022C324.613 317.799 324.552 319.096 323.982 319.325C323.079 319.688 321.245 317.238 319.885 313.855C319.766 313.561 319.656 313.269 319.552 312.982C317.398 312.388 315.969 311.574 316.067 310.882C316.117 310.532 316.551 310.261 317.256 310.082C316.782 309.336 316.62 308.743 316.865 308.43C317.11 308.118 317.725 308.134 318.562 308.416C318.567 307.688 318.727 307.203 319.055 307.071C319.704 306.81 320.836 308.004 321.926 309.954C322.23 309.986 322.539 310.024 322.853 310.069C326.464 310.582 329.28 311.779 329.143 312.742C329.056 313.35 327.812 313.72 325.997 313.78Z" fill="#27C527"/>
<path d="M312.899 319.911C302.569 311.017 297.351 301.642 295.152 295.435C294.218 292.797 296.091 290.297 298.865 290.663C307.052 291.743 319.785 296.805 327.161 302.139C328.654 303.218 328.825 305.307 327.688 306.757L317.794 319.376C316.594 320.906 314.373 321.18 312.899 319.911Z" fill="#F98D0B"/>
<circle cx="309.512" cy="309.246" r="1.1006" transform="rotate(128.098 309.512 309.246)" fill="#FFA63C"/>
<circle cx="315.76" cy="301.278" r="1.1006" transform="rotate(128.098 315.76 301.278)" fill="#FFA63C"/>
<path d="M310.212 303.361C309.237 304.605 309.455 306.403 310.698 307.378L314.229 302.875C312.986 301.899 311.187 302.117 310.212 303.361Z" fill="black"/>
<path d="M312.69 308.406L312.552 307.154L311.569 307.782" stroke="black" stroke-width="0.440239" stroke-linecap="round"/>
<path d="M315.702 304.563L314.454 304.729L314.829 303.624" stroke="black" stroke-width="0.440239" stroke-linecap="round"/>
<path fill-rule="evenodd" clip-rule="evenodd" d="M8.82852 155.368C7.56721 154.259 6.90434 153.27 7.20009 152.765C7.49585 152.259 8.68279 152.353 10.2675 152.909C9.65613 151.199 9.5422 149.906 10.0761 149.602C10.9212 149.121 13.0694 151.3 14.8743 154.469C15.0312 154.744 15.1803 155.018 15.3212 155.289C17.5359 155.586 19.0622 156.2 19.0581 156.899C19.056 157.253 18.6631 157.58 17.9884 157.852C18.5584 158.527 18.7994 159.093 18.5986 159.436C18.3979 159.779 17.7865 159.846 16.9187 159.679C17.012 160.401 16.9194 160.904 16.612 161.079C16.0041 161.425 14.7218 160.394 13.3781 158.609C13.073 158.619 12.7612 158.623 12.4442 158.621C8.79724 158.6 5.84542 157.794 5.85117 156.821C5.8548 156.207 7.03801 155.673 8.82852 155.368Z" fill="#27C527"/>
<path d="M20.9787 147.525C32.4147 154.942 38.8513 163.527 41.8681 169.381C43.15 171.868 41.6312 174.599 38.833 174.61C30.5758 174.645 17.2757 171.349 9.2466 167.06C7.62166 166.192 7.17058 164.145 8.10111 162.556L16.2005 148.716C17.183 147.038 19.3468 146.467 20.9787 147.525Z" fill="#F98D0B"/>
<circle cx="25.7734" cy="157.634" r="1.1006" transform="rotate(-59.6616 25.7734 157.634)" fill="#FFA63C"/>
<circle cx="20.6591" cy="166.373" r="1.1006" transform="rotate(-59.6616 20.6591 166.373)" fill="#FFA63C"/>
<path d="M25.8759 163.561C26.6742 162.197 26.2156 160.444 24.8516 159.645L21.9608 164.585C23.3248 165.383 25.0776 164.924 25.8759 163.561Z" fill="black"/>
<path d="M22.74 158.896L23.0451 160.118L23.9343 159.363" stroke="black" stroke-width="0.440239" stroke-linecap="round"/>
<path d="M20.2737 163.11L21.4884 162.778L21.2658 163.923" stroke="black" stroke-width="0.440239" stroke-linecap="round"/>
</svg>
