<svg width="24" height="24" viewBox="0 0 24 24" fill="none" xmlns="http://www.w3.org/2000/svg">
<path fill-rule="evenodd" clip-rule="evenodd" d="M5.29294 18.0208C4.90241 18.4113 4.90241 19.0445 5.29294 19.435C5.68346 19.8256 6.31663 19.8256 6.70715 19.435L12.364 13.7782L18.0208 19.4351C18.4113 19.8256 19.0445 19.8256 19.435 19.4351C19.8256 19.0445 19.8256 18.4114 19.435 18.0208L13.7782 12.364L19.4351 6.70711C19.8256 6.31658 19.8256 5.68342 19.4351 5.29289C19.0445 4.90237 18.4114 4.90237 18.0209 5.29289L12.364 10.9498L6.70711 5.29293C6.31658 4.9024 5.68342 4.9024 5.29289 5.29293C4.90237 5.68345 4.90237 6.31661 5.29289 6.70714L10.9498 12.364L5.29294 18.0208Z" fill="black"/>
</svg>
