<svg width="72" height="72" viewBox="0 0 72 72" fill="none" xmlns="http://www.w3.org/2000/svg">
<rect width="72" height="72" fill="#CCCCCC"/>
<path d="M50.5316 59.4762C55.7522 59.4762 58.568 53.2461 58.568 53.2461C60.4763 48.1341 55.7051 48.2255 56.5527 29.418C57.4011 10.6114 37.3617 9.63391 37.3617 9.63391L35.8229 9.63068L34.2841 9.63391C34.2841 9.63391 14.2438 10.6114 15.0922 29.418C15.9407 48.2255 11.1686 48.1341 13.0778 53.2461C13.0778 53.2461 16.7891 59.4762 21.4541 59.4762" stroke="white" stroke-width="1.5" stroke-linecap="round" stroke-linejoin="round"/>
<path fill-rule="evenodd" clip-rule="evenodd" d="M25.9027 30.6026H30.096C30.096 30.6026 30.2014 28.6105 30.6779 26.629C30.8846 25.768 32.1217 25.8342 32.2406 26.7122C32.4074 27.9411 32.575 29.4796 32.6357 30.9713C32.6357 30.9713 43.7113 31.0036 47.7946 30.9713C48.3405 30.9672 48.6837 31.4022 48.5711 31.9431C48.2375 33.5446 48.8329 37.4803 49.9168 39.4974C50.252 40.1216 50.3981 40.829 50.3566 41.538C50.3566 41.542 50.3558 41.5461 50.3558 41.5501C50.1746 44.6061 49.0181 47.5191 47.0204 49.8167C44.4799 52.7402 41.4925 56.0387 35.8226 56.0387C29.5621 56.0387 24.7318 51.5703 22.8155 48.1295C21.6806 46.0905 21.1139 43.7799 21.1139 41.4386V36.7494V35.4534C21.1139 32.775 23.2577 30.6026 25.9027 30.6026Z" stroke="white" stroke-width="1.5" stroke-linecap="round" stroke-linejoin="round"/>
<path d="M34.6021 38.4247L33.701 39.4595L34.6021 40.2502" stroke="white" stroke-linecap="round"/>
<path d="M30.9346 43.8902V43.8902C33.2571 45.1401 36.033 45.1749 38.3851 43.984L38.5695 43.8902" stroke="white" stroke-linecap="round"/>
<path fill-rule="evenodd" clip-rule="evenodd" d="M42.2799 36.16C42.2799 36.7381 41.817 37.207 41.2463 37.207C40.6748 37.207 40.2119 36.7381 40.2119 36.16C40.2119 35.5811 40.6748 35.113 41.2463 35.113C41.817 35.113 42.2799 35.5811 42.2799 36.16" fill="white"/>
<path fill-rule="evenodd" clip-rule="evenodd" d="M30.0683 36.16C30.0683 36.7381 29.6053 37.207 29.0347 37.207C28.464 37.207 28.0011 36.7381 28.0011 36.16C28.0011 35.5811 28.464 35.113 29.0347 35.113C29.6053 35.113 30.0683 35.5811 30.0683 36.16" fill="white"/>
</svg>
