<svg width="209" height="334" viewBox="0 0 209 334" fill="none" xmlns="http://www.w3.org/2000/svg">
<path fill-rule="evenodd" clip-rule="evenodd" d="M32.5582 33.8462C31.2041 33.8462 29.9629 33.8588 28.8346 33.8838C27.7062 33.9089 26.6406 33.8462 25.6376 33.6958C24.6346 33.5453 23.6065 33.2821 22.5534 32.9059C21.5003 32.5298 20.3719 31.9406 19.1683 31.1382C16.8113 29.5836 15.194 27.5525 14.3164 25.0451C13.4388 22.5376 13 19.9549 13 17.297C13 14.6391 13.4764 12.1442 14.4293 9.81227C15.3821 7.48033 16.9367 5.4869 19.0931 3.83198C20.8483 2.42781 22.8167 1.39975 24.9982 0.747812C27.1797 0.0958733 29.3737 -0.129798 31.5802 0.0707988C32.5832 0.171097 33.4483 0.258858 34.1755 0.334082C34.9026 0.409305 35.5922 0.522141 36.2441 0.672588C36.8961 0.823036 37.548 1.02363 38.1999 1.27438C38.8519 1.52512 39.6292 1.85109 40.5319 2.25229C43.5408 3.85706 45.6847 6.06362 46.9635 8.87197C48.2423 11.6803 48.7313 15.0403 48.4304 18.9519C48.1295 23.9669 46.7127 27.703 44.1802 30.1603C41.6477 32.6176 37.7737 33.8462 32.5582 33.8462ZM65.7318 34.5232C65.0297 34.9244 64.3276 35.125 63.6255 35.125C62.773 35.125 61.9455 34.8492 61.1432 34.2976C60.5414 33.8964 60.1151 33.3949 59.8644 32.7931C59.5635 32.2415 59.3629 31.6898 59.2626 31.1382C59.1623 30.5865 59.087 30.0349 59.0369 29.4833V21.8857H57.2315C55.7772 21.7854 54.4733 21.6976 53.3199 21.6224C52.1665 21.5472 51.2638 21.0081 50.6118 20.0051C50.3109 19.5036 50.1605 18.8767 50.1605 18.1245C50.1605 17.3722 50.2106 16.7203 50.3109 16.1687C50.4614 15.617 50.7372 15.1531 51.1384 14.777C51.5396 14.4009 52.2417 14.0875 53.2447 13.8367C53.4453 13.7866 53.8214 13.749 54.373 13.7239C54.9247 13.6988 55.5139 13.6612 56.1408 13.6111C56.7676 13.5609 57.3569 13.5233 57.9085 13.4982C58.4602 13.4732 58.8363 13.4606 59.0369 13.4606V6.99138C58.9867 6.43974 58.9742 5.8881 58.9993 5.33646C59.0244 4.78482 59.1121 4.23318 59.2626 3.68154C59.3629 3.28034 59.4632 2.90422 59.5635 2.55318C59.6638 2.20214 59.8894 1.82602 60.2405 1.42483C60.6417 0.923334 61.2058 0.57229 61.933 0.371693C62.6602 0.171097 63.45 0.120948 64.3026 0.221246C65.9073 0.471992 66.9354 1.09886 67.3867 2.10184C67.6876 2.70363 67.8757 3.44333 67.9509 4.32094C68.0186 5.11079 68.0558 5.62644 68.0626 5.86791L68.0637 30.4612H67.9885C67.9885 30.5113 67.9634 30.6868 67.9133 30.9877C67.8631 31.2886 67.7628 31.6522 67.6124 32.0785C67.4619 32.5047 67.2363 32.9435 66.9354 33.3949C66.6345 33.8462 66.2333 34.2224 65.7318 34.5232ZM32.7838 25.6845C31.7307 25.8098 30.6776 25.8224 29.6244 25.7221C28.0698 25.5716 26.7785 25.1955 25.7504 24.5937C24.7224 23.9919 23.92 23.2522 23.3433 22.3746C22.7665 21.497 22.3904 20.5191 22.2149 19.4409C22.0394 18.3627 22.0268 17.297 22.1773 16.2439C22.428 14.6893 23.0048 13.423 23.9074 12.4451C24.8101 11.4672 25.8632 10.74 27.0668 10.2636C28.2704 9.78719 29.5492 9.54898 30.9032 9.54898C32.2573 9.54898 33.511 9.74958 34.6644 10.1508C35.7176 10.552 36.5701 11.0785 37.222 11.7305C37.874 12.3824 38.3629 13.1221 38.6889 13.9496C39.0149 14.777 39.228 15.6797 39.3283 16.6576C39.4286 17.6355 39.4787 18.6761 39.4787 19.7794C39.1778 21.0331 38.7014 22.0737 38.0495 22.9012C37.3975 23.7286 36.6202 24.368 35.7176 24.8194C34.8149 25.2707 33.837 25.5591 32.7838 25.6845ZM64.1145 60.7011C63.5378 60.7512 62.9736 60.7763 62.422 60.7763L23.2304 60.6259C22.5785 60.5757 21.8764 60.5506 21.1242 60.5506C20.3719 60.5506 19.72 60.35 19.1683 59.9489C19.1182 59.9489 19.043 59.8987 18.9427 59.7984C18.4412 59.3972 18.1027 58.808 17.9272 58.0306C17.7516 57.2533 17.6639 56.5889 17.6639 56.0372C17.6137 55.1345 17.551 54.2318 17.4758 53.3292C17.4006 52.4265 17.363 51.5489 17.363 50.6963V46.8599C17.363 45.6062 17.4883 44.3525 17.7391 43.0987C17.8895 42.2964 18.1403 41.657 18.4913 41.1805C18.8424 40.7041 19.394 40.3155 20.1462 40.0146C21.5504 39.4629 22.9546 39.1871 24.3588 39.1871H59.7891C60.742 39.2373 61.7199 39.3125 62.7229 39.4128C63.7258 39.5131 64.6787 39.7638 65.5814 40.165C66.5843 40.5662 67.2488 41.2307 67.5748 42.1585C67.9008 43.0862 68.1139 44.0516 68.2142 45.0546C68.2643 45.9071 68.3019 46.8975 68.327 48.0259C68.3521 49.1543 68.3396 50.2951 68.2894 51.4486C68.2393 52.602 68.164 53.7429 68.0637 54.8713C67.9634 55.9996 67.7879 57.0151 67.5372 57.9178C67.3867 58.4695 67.2112 58.9584 67.0106 59.3847C66.81 59.8109 66.4088 60.1244 65.807 60.325C65.2554 60.5256 64.6912 60.6509 64.1145 60.7011ZM56.0279 52.7274C55.4262 52.7274 54.8494 52.7023 54.2978 52.6522C53.6459 52.602 52.9689 52.5519 52.2668 52.5017H28.7218C28.3707 52.5519 28.0698 52.5769 27.8191 52.5769C27.5683 52.5769 27.3301 52.5644 27.1044 52.5393C26.8788 52.5142 26.7158 52.4516 26.6155 52.3513C26.465 52.251 26.3773 52.088 26.3522 51.8623C26.3271 51.6366 26.3146 51.3984 26.3146 51.1477C26.3146 50.9972 26.3271 50.8719 26.3522 50.7716C26.3773 50.6713 26.3647 50.571 26.3146 50.4707V49.5304C26.3146 49.2044 26.3647 48.8659 26.465 48.5149C26.5653 48.0635 26.7283 47.8253 26.954 47.8002C27.1797 47.7752 27.4931 47.7626 27.8943 47.7626C28.9976 47.7125 30.0758 47.6749 31.1289 47.6498C32.182 47.6247 33.2602 47.6623 34.3635 47.7626H55.2757C55.7772 47.7125 56.3414 47.6999 56.9682 47.725C57.5951 47.7501 58.0841 47.9632 58.4351 48.3644C58.736 48.7656 58.8865 49.2295 58.8865 49.756C58.8865 50.2826 58.8614 50.7465 58.8112 51.1477C58.7611 51.599 58.6859 51.9375 58.5856 52.1632C58.4853 52.3889 58.1844 52.5268 57.6829 52.5769C57.1814 52.6772 56.6297 52.7274 56.0279 52.7274ZM124.933 60.2497C124.331 60.9518 123.529 61.3029 122.526 61.3029L122.375 61.2277C121.172 61.1775 120.206 60.8265 119.479 60.1745C118.752 59.5226 118.2 58.7202 117.824 57.7674C117.448 56.8145 117.21 55.8241 117.11 54.796C117.009 53.768 116.959 52.8528 116.959 52.0504V6.65287C116.959 6.2266 117.009 5.72511 117.11 5.1484C117.21 4.57168 117.373 3.96989 117.599 3.34303C117.824 2.71617 118.138 2.20214 118.539 1.80094C118.89 1.4499 119.404 1.18662 120.081 1.01109C120.758 0.835573 121.372 0.747812 121.924 0.747812C123.027 0.747812 123.955 1.12393 124.707 1.87617C125.409 2.57825 125.823 3.31795 125.948 4.09527C126.074 4.87258 126.187 5.6875 126.287 6.54004C126.337 6.74063 126.362 7.04153 126.362 7.44272C126.462 8.29526 126.525 9.17286 126.55 10.0755C126.575 10.9782 126.613 11.8809 126.663 12.7836C126.663 13.3352 126.676 13.8743 126.701 14.4009C126.726 14.9275 126.738 15.4666 126.738 16.0182C126.688 16.3191 126.676 16.6075 126.701 16.8833C126.726 17.1591 126.738 17.4224 126.738 17.6731V22.7131C126.738 23.014 126.788 23.2898 126.889 23.5406C126.889 23.5852 127.087 23.6099 127.483 23.6149L128.468 23.6158C128.92 23.7161 129.271 23.7412 129.521 23.691H129.672C129.923 23.691 130.161 23.7161 130.387 23.7663C130.612 23.8164 130.85 23.8415 131.101 23.8415C131.352 23.8916 131.628 23.9292 131.929 23.9543C132.23 23.9794 132.53 24.017 132.831 24.0672C133.383 24.1675 133.935 24.3555 134.486 24.6313C135.038 24.9072 135.439 25.3209 135.69 25.8725C136.041 26.4242 136.216 27.0761 136.216 27.8283C136.216 28.2295 136.204 28.5931 136.179 28.9191C136.154 29.2451 136.091 29.6086 135.991 30.0098C135.89 30.411 135.778 30.8373 135.652 31.2886C135.527 31.74 135.289 32.091 134.938 32.3418C134.236 32.8433 133.558 33.1692 132.907 33.3197C132.104 33.42 131.126 33.445 129.973 33.3949C128.819 33.3447 127.841 33.3447 127.039 33.3949C126.989 33.3949 126.939 33.42 126.889 33.4701H126.813L126.738 33.5453V43.2492C126.839 45.8569 126.839 48.4146 126.738 50.922V51.9751C126.738 52.6271 126.726 53.3417 126.701 54.119C126.676 54.8963 126.613 55.6611 126.513 56.4133C126.412 57.1656 126.237 57.8802 125.986 58.5572C125.735 59.2342 125.384 59.7984 124.933 60.2497ZM100.889 57.8421C100.993 57.8396 101.335 57.8273 101.914 57.805C102.566 57.7799 103.281 57.6796 104.058 57.5041C104.836 57.3286 105.613 57.0653 106.39 56.7142C107.168 56.3632 107.757 55.8868 108.158 55.285C108.459 54.7835 108.697 54.1566 108.873 53.4044C109.048 52.6522 109.186 51.925 109.286 51.2229C109.387 50.5208 109.449 49.9065 109.474 49.3799C109.499 48.8534 109.512 48.565 109.512 48.5149V10.3764C109.512 9.62421 109.412 8.77167 109.211 7.81884C109.01 6.866 108.622 5.97586 108.045 5.1484C107.468 4.32094 106.679 3.61885 105.676 3.04213C104.673 2.46542 103.369 2.17706 101.764 2.17706L101.049 2.13945C100.573 2.11438 100.046 2.10184 99.4696 2.10184H97.1001C95.5956 2.15199 94.1287 2.16452 92.6995 2.13945C91.2702 2.11438 89.7532 2.10184 88.1485 2.10184C87.2458 2.10184 86.2553 2.06423 85.1771 1.989C84.0989 1.91378 83.0458 1.93885 82.0177 2.06423C80.9897 2.1896 80.0494 2.47796 79.1968 2.9293C78.3443 3.38064 77.6673 4.1078 77.1658 5.11079C76.7646 5.91317 76.4888 6.90362 76.3383 8.08212C76.1879 9.26063 76.1127 10.4141 76.1127 11.5424C76.1127 12.6708 76.1503 13.6737 76.2255 14.5514C76.2597 14.9503 76.2861 15.2741 76.3048 15.5227L76.3234 15.7851C76.3334 15.936 76.3383 16.0387 76.3383 16.0934V43.174C76.2882 44.9292 76.3007 46.7095 76.376 48.5149C76.4512 50.3202 76.8398 52.0504 77.5419 53.7053C77.9431 54.6581 78.5825 55.4104 79.4601 55.962C80.3377 56.5136 81.278 56.9274 82.281 57.2032C83.284 57.479 84.2494 57.6545 85.1771 57.7298C86.1049 57.805 86.7944 57.8426 87.2458 57.8426L100.889 57.8421ZM87.6971 48.3644L94.6929 48.4396C95.2947 48.3895 95.8965 48.3268 96.4983 48.2516C97.1001 48.1763 97.6517 47.9883 98.1532 47.6874C98.7048 47.3865 99.0057 46.8599 99.0559 46.1077C99.106 45.3555 99.106 44.6283 99.0559 43.9262V18.8015C99.0559 18.1496 99.0308 17.5227 98.9807 16.9209C98.9305 16.3693 98.8929 15.8176 98.8678 15.266C98.8428 14.7143 98.8051 14.2379 98.755 13.8367C98.6547 12.8839 98.3162 12.2946 97.7395 12.069C97.1628 11.8433 96.724 11.7305 96.4231 11.7305H96.3478L89.9538 11.58C88.7503 11.58 87.8726 11.7555 87.321 12.1066C86.7694 12.4576 86.3682 12.9842 86.1174 13.6863C86.0673 13.937 86.0297 14.3006 86.0046 14.777C85.9795 15.2534 85.967 15.7549 85.967 16.2815V46.4086C86.0171 46.8098 86.1801 47.211 86.4559 47.6122C86.7317 48.0134 87.1455 48.2641 87.6971 48.3644ZM187.669 60.7763C188.321 60.8766 188.948 60.8766 189.55 60.7763C190.152 60.676 190.678 60.4503 191.13 60.0993C191.531 59.9489 191.832 59.7733 192.032 59.5727C192.233 59.3721 192.434 59.1966 192.634 59.0462C192.734 58.7954 192.835 58.5823 192.935 58.4068C193.035 58.2312 193.136 58.0181 193.236 57.7674C193.587 57.2659 193.763 56.6139 193.763 55.8116C193.863 55.4104 193.913 54.9841 193.913 54.5327V53.1035C193.913 52.4014 193.888 51.6617 193.838 50.8844C193.788 50.1071 193.813 49.3172 193.913 48.5149V39.9394C194.013 38.9865 194.063 38.0086 194.063 37.0056V18.2749C194.063 17.2218 194.013 16.1937 193.913 15.1908V10.3012C193.813 9.74958 193.763 9.16033 193.763 8.53346V6.76571C193.763 6.21407 193.687 5.66243 193.537 5.11079C193.386 4.55915 193.186 4.0075 192.935 3.45586C192.634 2.70363 192.158 2.07676 191.506 1.57527C191.105 1.32453 190.703 1.149 190.302 1.04871C189.901 0.948408 189.5 0.898259 189.099 0.898259H188.008C187.682 0.898259 187.343 0.948408 186.992 1.04871C186.591 1.19915 186.04 1.52512 185.337 2.02661C184.585 2.87915 184.134 3.98243 183.983 5.33646C183.833 6.13884 183.745 6.866 183.72 7.51794C183.695 8.16988 183.683 8.82182 183.683 9.47376L183.833 54.0814V54.9089C183.833 55.0593 183.858 55.2599 183.908 55.5107C183.958 55.7614 184.034 56.0121 184.134 56.2629C184.134 56.6139 184.184 56.9399 184.284 57.2408C184.385 57.5417 184.51 57.8677 184.66 58.2187C185.011 59.0211 185.388 59.5477 185.789 59.7984C186.19 60.2497 186.817 60.5757 187.669 60.7763ZM160.401 36.5543C160.175 36.5543 159.937 36.6044 159.686 36.7047H157.693C157.467 36.7047 157.229 36.6546 156.978 36.5543H156.038C155.712 36.5543 155.398 36.5041 155.098 36.4038C154.696 36.4038 154.333 36.3788 154.007 36.3286C153.681 36.2785 153.342 36.2534 152.991 36.2534C151.637 36.0528 150.333 35.6516 149.08 35.0498C148.378 34.6988 147.726 34.3603 147.124 34.0343C146.522 33.7083 145.945 33.2946 145.394 32.7931C143.388 31.3889 141.958 29.383 141.106 26.7752C140.604 25.4713 140.266 24.2176 140.09 23.014C139.915 21.8104 139.827 20.5818 139.827 19.3281C139.827 18.0242 139.94 16.8081 140.166 15.6797C140.391 14.5514 140.705 13.4355 141.106 12.3323C141.607 11.2791 142.147 10.2887 142.723 9.36092C143.3 8.43316 143.99 7.61824 144.792 6.91615C145.594 6.06362 146.434 5.33646 147.312 4.73467C148.189 4.13288 149.205 3.63139 150.358 3.23019C151.361 2.7287 152.452 2.36512 153.631 2.13945C154.809 1.91378 156.05 1.80094 157.354 1.80094C158.257 1.6505 159.135 1.6505 159.987 1.80094C160.388 1.80094 160.827 1.82602 161.303 1.87617C161.78 1.92632 162.219 2.00154 162.62 2.10184C162.821 2.20214 163.034 2.25229 163.259 2.25229C163.485 2.25229 163.723 2.30243 163.974 2.40273C164.225 2.40273 164.463 2.44034 164.689 2.51557C164.914 2.59079 165.102 2.67855 165.253 2.77885C165.804 2.9293 166.318 3.09228 166.795 3.26781C167.271 3.44333 167.76 3.65646 168.262 3.90721C169.114 4.3084 169.967 4.75974 170.819 5.26123C171.12 5.41168 171.459 5.63735 171.835 5.93825C172.211 6.23914 172.575 6.56511 172.926 6.91615C173.828 7.81884 174.555 8.7466 175.107 9.69943C175.408 10.2009 175.671 10.7275 175.897 11.2791C176.123 11.8308 176.286 12.4326 176.386 13.0845C176.536 13.6361 176.662 14.2003 176.762 14.777C176.862 15.3537 176.963 15.9179 177.063 16.4696C177.163 17.0212 177.238 17.5728 177.289 18.1245C177.339 18.6761 177.314 19.2779 177.213 19.9299C177.213 20.2307 177.188 20.5693 177.138 20.9454C177.088 21.3215 177.063 21.66 177.063 21.9609C176.963 22.3621 176.887 22.7633 176.837 23.1645C176.787 23.5657 176.687 23.9167 176.536 24.2176C176.235 26.1734 175.609 27.9788 174.656 29.6337C174.104 30.4862 173.49 31.2385 172.813 31.8904C172.136 32.5424 171.371 33.1692 170.518 33.771C169.866 34.1722 169.215 34.5232 168.563 34.8241C167.911 35.125 167.234 35.3507 166.532 35.5012C165.88 35.7018 165.215 35.8647 164.538 35.9901C163.861 36.1155 163.172 36.2534 162.469 36.4038C162.219 36.5041 161.968 36.5543 161.717 36.5543H160.401ZM159.536 28.054C158.834 28.054 158.119 28.0039 157.392 27.9036C156.665 27.8033 155.95 27.6277 155.248 27.377C153.292 26.6248 151.813 25.4713 150.81 23.9167C150.409 23.1645 150.083 22.1866 149.832 20.983C149.681 19.9299 149.681 18.9269 149.832 17.974C150.032 17.2218 150.246 16.5322 150.471 15.9054C150.697 15.2785 151.01 14.7143 151.412 14.2129C151.813 13.6612 152.264 13.2224 152.766 12.8964C153.267 12.5705 153.794 12.2821 154.345 12.0314C154.897 11.7806 155.474 11.6051 156.075 11.5048C156.677 11.4045 157.304 11.3544 157.956 11.3544C159.31 11.3544 160.639 11.5048 161.943 11.8057C162.194 11.906 162.432 12.0063 162.658 12.1066C162.883 12.2069 163.096 12.3323 163.297 12.4827C163.698 12.6332 164.099 12.8338 164.501 13.0845C164.952 13.3854 165.253 13.7114 165.403 14.0624C165.604 14.1627 165.754 14.3006 165.855 14.4761C165.955 14.6517 166.08 14.8146 166.231 14.9651C166.381 15.2158 166.544 15.5042 166.72 15.8302C166.895 16.1561 167.033 16.4946 167.133 16.8457C167.384 17.6982 167.547 18.5006 167.622 19.2528C167.698 20.0051 167.635 20.8075 167.434 21.66C167.284 22.2116 167.133 22.7382 166.983 23.2397C166.832 23.7412 166.582 24.2678 166.231 24.8194C165.579 25.8725 164.776 26.6248 163.824 27.0761C163.472 27.2265 163.134 27.377 162.808 27.5274C162.482 27.6779 162.143 27.7531 161.792 27.7531C161.391 27.8534 161.015 27.9036 160.664 27.9036C160.313 27.9036 159.937 27.9537 159.536 28.054ZM165.366 52.953C164.488 52.953 163.573 53.0032 162.62 53.1035H157.354C156.452 53.0032 155.649 52.953 154.947 52.953H144.942C144.441 52.953 143.964 52.928 143.513 52.8778C143.062 52.8277 142.585 52.7525 142.084 52.6522C141.833 52.5519 141.595 52.4641 141.369 52.3889C141.144 52.3136 140.905 52.2259 140.655 52.1256C140.203 51.9751 139.777 51.7495 139.376 51.4486C139.075 51.0975 138.837 50.7089 138.661 50.2826C138.486 49.8563 138.398 49.3172 138.398 48.6653C138.398 47.7125 138.724 46.8599 139.376 46.1077C139.677 45.6564 140.153 45.3555 140.805 45.205C141.106 45.1047 141.407 45.0169 141.708 44.9417C142.009 44.8665 142.284 44.7787 142.535 44.6784C142.886 44.5781 143.162 44.528 143.363 44.528H173.828C174.28 44.528 174.706 44.5781 175.107 44.6784C175.508 44.6784 175.884 44.7035 176.235 44.7537C176.586 44.8038 176.963 44.879 177.364 44.9793C178.016 45.1799 178.592 45.4558 179.094 45.8068C179.595 46.3083 179.984 46.8098 180.26 47.3113C180.536 47.8128 180.674 48.3644 180.674 48.9662C180.674 49.8187 180.398 50.571 179.846 51.2229C179.345 51.8748 178.793 52.3011 178.191 52.5017C177.94 52.602 177.69 52.6772 177.439 52.7274C177.188 52.7775 176.937 52.8026 176.687 52.8026C176.386 52.9029 176.11 52.953 175.859 52.953H165.366ZM65.1802 134.85C65.8321 135 66.484 135.038 67.136 134.962C67.7879 134.887 68.3897 134.674 68.9413 134.323C69.5933 133.872 70.0697 133.32 70.3706 132.668C70.8721 131.615 71.1604 130.487 71.2357 129.283C71.3109 128.079 71.3485 126.826 71.3485 125.522L71.3497 105.372C71.3552 102.215 71.3798 98.9146 71.4237 95.47C71.4739 91.5332 71.4488 87.6592 71.3485 83.8479V83.4718C71.2984 82.3183 71.2482 81.19 71.1981 80.0867C71.1479 78.9834 70.8972 77.9052 70.4458 76.8521C70.1449 76.0497 69.6434 75.4103 68.9413 74.9339C68.2393 74.4575 67.4619 74.2193 66.6094 74.2193C65.9073 74.2193 65.3306 74.2819 64.8793 74.4073C64.4279 74.5327 63.9264 74.8461 63.3748 75.3476C63.0238 75.6987 62.7605 76.1751 62.5849 76.7769C62.4094 77.3787 62.2715 78.0181 62.1712 78.6951C62.0709 79.3721 62.0208 80.0742 62.0208 80.8013V128.305C62.0208 128.957 62.0458 129.634 62.096 130.336C62.1461 131.038 62.2715 131.69 62.4721 132.292C62.6727 132.894 62.9861 133.433 63.4124 133.909C63.8387 134.386 64.4279 134.699 65.1802 134.85ZM55.9277 134.022C55.3259 134.524 54.4733 134.774 53.37 134.774C53.0691 134.774 52.693 134.737 52.2417 134.661C51.7903 134.586 51.4393 134.448 51.1886 134.248C50.6871 133.947 50.2984 133.483 50.0226 132.856C49.7468 132.229 49.5336 131.565 49.3832 130.863C49.2327 130.161 49.145 129.471 49.1199 128.794C49.0948 128.117 49.0823 127.553 49.0823 127.102L42.3874 126.951C41.936 126.951 41.4722 126.926 40.9957 126.876C40.5193 126.826 40.068 126.7 39.6417 126.5C39.2155 126.299 38.8519 125.986 38.551 125.559C38.2501 125.133 38.0746 124.544 38.0244 123.792C37.9241 122.889 37.9868 122.049 38.2125 121.272C38.4381 120.494 39.1277 119.83 40.2811 119.278C40.7325 119.028 41.2966 118.877 41.9737 118.827C42.6507 118.777 43.2399 118.777 43.7414 118.827H49.0823V79.8987C49.0823 79.2216 49.1575 78.5572 49.308 77.9052C49.4083 77.6545 49.496 77.4288 49.5712 77.2282C49.6465 77.0276 49.7342 76.8019 49.8345 76.5512C50.1354 76.0497 50.4363 75.661 50.7372 75.3852C51.0381 75.1094 51.4644 74.8712 52.016 74.6706C52.2668 74.5703 52.53 74.5076 52.8059 74.4825C53.0817 74.4575 53.345 74.4449 53.5957 74.4449C55.2506 74.4449 56.5044 75.1972 57.3569 76.7016C57.5575 77.0025 57.6954 77.4288 57.7706 77.9804C57.8459 78.5321 57.9085 79.0963 57.9587 79.673C58.0088 80.2497 58.0339 80.7512 58.0339 81.1775V126.274C58.0339 127.528 57.9963 128.531 57.9211 129.283C57.8459 130.035 57.6076 130.988 57.2065 132.141C56.9557 132.894 56.5294 133.521 55.9277 134.022ZM39.0023 105.437C40.0053 105.337 40.9205 104.961 41.748 104.309C42.5754 103.657 42.9892 102.729 42.9892 101.525V83.6222C42.9892 82.9201 42.9516 81.9924 42.8763 80.839C42.8011 79.6855 42.5629 78.8079 42.1617 78.2061C41.9611 77.8049 41.7104 77.479 41.4095 77.2282C41.1086 76.9775 40.8328 76.7267 40.582 76.476C40.4316 76.4258 40.3062 76.3882 40.2059 76.3631C40.1056 76.3381 40.0053 76.3255 39.905 76.3255C39.7044 76.2252 39.3534 76.1751 38.8519 76.1751C38.5008 76.1249 38.1498 76.0999 37.7987 76.0999H36.8961C36.545 76.0999 36.194 76.0873 35.8429 76.0622C35.4919 76.0372 35.1408 76.0246 34.7898 76.0246H33.1349C32.9343 75.9745 32.4829 75.9619 31.7808 75.987C31.0788 76.0121 30.6023 76.0246 30.3516 76.0246L26.1183 76.0239C25.6056 76.0208 24.9731 76.0085 24.2209 75.987C23.3433 75.9619 22.6286 75.9494 22.077 75.9494C21.2746 75.9996 20.5976 76.0372 20.046 76.0622C19.4943 76.0873 18.7922 76.2252 17.9397 76.476C17.3379 76.7267 16.711 77.1279 16.0591 77.6796C15.4072 78.2312 15.0812 78.9834 15.0812 79.9363C15.0812 80.9392 15.3194 81.9172 15.7958 82.87C16.2722 83.8228 17.1875 84.3494 18.5415 84.4497C19.2436 84.4998 19.8579 84.5374 20.3845 84.5625C20.911 84.5876 21.4125 84.6001 21.8889 84.6001H25.0859C26.2895 84.7004 27.7188 84.738 29.3737 84.713C31.0286 84.6879 32.4579 84.7004 33.6614 84.7506L33.8119 90.3924C31.6555 90.2921 29.311 90.267 26.7785 90.3171C24.2459 90.3673 21.9265 90.4174 19.8203 90.4676C18.5164 90.5177 17.4257 90.8437 16.5481 91.4455C15.6704 92.0473 15.2316 93.0753 15.2316 94.5297C15.2316 95.3822 15.6203 96.2347 16.3976 97.0873C17.1749 97.9398 18.366 98.3661 19.9707 98.3661H33.8119L33.8871 101.3C33.8871 102.002 34.0376 102.629 34.3385 103.18C34.6393 103.732 35.0405 104.183 35.542 104.534C36.0435 104.885 36.6077 105.136 37.2346 105.287C37.8614 105.437 38.4507 105.487 39.0023 105.437ZM32.5707 132.969C31.6429 134.022 30.4268 134.499 28.9223 134.398C27.7689 134.298 26.7158 133.959 25.763 133.383C24.8101 132.806 24.3086 131.565 24.2585 129.659L24.0328 117.097C23.1301 117.047 22.24 117.009 21.3624 116.984C20.4848 116.959 19.5695 116.921 18.6167 116.871C17.9146 116.821 17.2125 116.683 16.5104 116.457C15.8084 116.232 15.1564 115.768 14.5546 115.066C13.9528 114.414 13.6519 113.536 13.6519 112.433C13.6519 111.279 13.9528 110.327 14.5546 109.574C14.9057 109.123 15.3445 108.797 15.871 108.596C16.3976 108.396 16.9242 108.245 17.4507 108.145C17.9773 108.045 18.4286 107.995 18.8048 107.995H39.0775C40.0805 107.995 40.9331 108.032 41.6352 108.108C42.3372 108.183 43.0644 108.622 43.8166 109.424C44.268 109.925 44.5814 110.439 44.7569 110.966C44.9325 111.493 45.0202 112.082 45.0202 112.734C45.0202 114.439 44.3181 115.592 42.914 116.194C42.0113 116.595 41.071 116.846 40.0931 116.946C39.1152 117.047 38.1498 117.122 37.197 117.172C36.6453 117.222 36.1187 117.247 35.6173 117.247H34.0376L33.9623 129.133C33.9623 130.637 33.4985 131.916 32.5707 132.969ZM124.482 114.426C125.184 114.502 125.911 114.364 126.663 114.013C127.716 113.511 128.381 112.847 128.656 112.019C128.932 111.192 128.957 110.314 128.732 109.386C128.506 108.459 128.117 107.543 127.566 106.641C127.014 105.738 126.437 104.986 125.836 104.384C124.03 102.478 122.275 100.535 120.57 98.5541C118.865 96.5732 117.135 94.6049 115.379 92.6491C114.878 92.0974 114.439 91.5458 114.063 90.9941C113.687 90.4425 113.298 89.8658 112.897 89.264C112.596 88.8628 112.383 88.2861 112.258 87.5339C112.132 86.7816 112.032 85.9918 111.957 85.1643C111.882 84.3368 111.831 83.5219 111.806 82.7195C111.781 81.9172 111.744 81.2903 111.693 80.8389C111.593 79.6855 111.28 78.6825 110.753 77.83C110.227 76.9775 109.387 76.3757 108.233 76.0246C107.431 75.7739 106.478 75.7363 105.375 75.9118C104.271 76.0873 103.394 76.476 102.742 77.0778C102.341 77.479 101.965 78.0807 101.614 78.8831C101.262 79.6855 101.037 80.538 100.936 81.4407C100.836 82.1428 100.774 82.9452 100.748 83.8479C100.723 84.7506 100.686 85.578 100.636 86.3303C100.585 87.233 100.56 88.1356 100.56 89.0383C99.8081 89.941 99.081 90.8437 98.3789 91.7464C97.7771 92.4986 97.1252 93.2634 96.4231 94.0407C95.721 94.818 95.0941 95.4323 94.5425 95.8837C92.8374 97.3882 91.195 98.9302 89.6153 100.51C88.0356 102.09 86.4935 103.757 84.9891 105.512C84.5879 105.964 84.2118 106.465 83.8607 107.017C83.5097 107.568 83.2213 108.133 82.9956 108.709C82.77 109.286 82.6571 109.875 82.6571 110.477C82.6571 111.079 82.8577 111.681 83.2589 112.282C83.8106 113.035 84.613 113.561 85.6661 113.862C86.7192 114.163 87.6971 114.188 88.5998 113.937C89.4022 113.737 90.1294 113.411 90.7813 112.959C91.4332 112.508 92.0601 112.019 92.6619 111.493C93.2637 110.966 93.8529 110.452 94.4296 109.951C95.0064 109.449 95.5705 108.998 96.1222 108.596L106.428 99.1183L119.065 111.079C119.517 111.58 120.031 112.082 120.607 112.583C121.184 113.085 121.799 113.499 122.45 113.825C123.102 114.15 123.779 114.351 124.482 114.426ZM93.4517 130.411C90.0165 130.462 87.1706 130.436 84.9138 130.336C84.1115 130.286 83.3216 130.173 82.5443 129.998C81.767 129.822 81.0774 129.571 80.4756 129.245C79.8739 128.919 79.3849 128.456 79.0088 127.854C78.6327 127.252 78.4446 126.45 78.4446 125.447C78.4446 124.444 78.7706 123.566 79.4225 122.814C79.8237 122.413 80.3252 122.112 80.927 121.911C81.5288 121.71 82.1055 121.56 82.6571 121.46C83.2088 121.359 83.6977 121.309 84.124 121.309H84.8386L125.986 121.385C127.29 121.385 128.481 121.397 129.559 121.422C130.637 121.447 131.603 121.811 132.455 122.513C133.508 123.466 134.035 124.544 134.035 125.747C134.035 126.5 133.809 127.189 133.358 127.816C132.907 128.443 132.305 128.882 131.553 129.133C130.55 129.534 129.509 129.81 128.431 129.96C127.353 130.11 126.287 130.211 125.234 130.261C121.573 130.411 117.962 130.462 114.402 130.411C110.841 130.361 107.381 130.336 104.021 130.336C100.41 130.336 96.8869 130.361 93.4517 130.411ZM182.73 114.84C183.883 114.84 185.062 114.74 186.265 114.539C187.469 114.339 188.622 113.937 189.726 113.336C190.428 112.985 190.967 112.496 191.343 111.869C191.719 111.242 191.932 110.577 191.982 109.875C192.032 109.173 191.92 108.484 191.644 107.807C191.368 107.13 190.904 106.565 190.252 106.114C190.102 106.014 189.964 105.939 189.838 105.888C189.713 105.838 189.575 105.788 189.425 105.738C188.622 105.487 187.82 105.337 187.017 105.287C186.215 105.236 185.413 105.211 184.61 105.211C184.209 105.211 183.858 105.224 183.557 105.249C183.256 105.274 182.905 105.287 182.504 105.287L178.492 105.286C178.158 105.284 177.539 105.272 176.637 105.249C175.634 105.224 174.455 105.211 173.101 105.211L163.805 105.212C162.684 105.215 161.683 105.228 160.802 105.249C159.961 105.27 159.38 105.282 159.059 105.285L158.583 105.287C157.58 105.287 156.69 105.236 155.912 105.136C155.135 105.036 154.571 104.885 154.22 104.685C154.17 104.685 154.12 104.71 154.069 104.76C154.019 104.81 153.969 104.848 153.919 104.873C153.869 104.898 153.831 104.86 153.806 104.76C153.781 104.66 153.769 104.434 153.769 104.083V100.999L153.773 101.045L153.806 101.413C153.83 101.679 153.843 101.875 153.844 102.001L153.843 101.837C153.839 101.588 153.814 101.008 153.769 100.096C154.471 100.146 155.148 100.171 155.8 100.171L169.2 100.17C171.531 100.165 174.035 100.14 176.712 100.096H185.739C186.892 100.096 187.883 99.7828 188.71 99.1559C189.537 98.5291 189.951 97.7141 189.951 96.7111C190.051 95.9088 190.001 95.0688 189.801 94.1912C189.6 93.3135 189.124 92.6491 188.371 92.1977C187.87 91.8968 187.331 91.6962 186.754 91.5959C186.177 91.4956 185.613 91.4455 185.062 91.4455H183.031C182.78 91.4956 182.529 91.5082 182.278 91.4831C182.028 91.458 181.777 91.4455 181.526 91.4455H174.229C170.97 91.4956 167.961 91.5207 165.203 91.5207L157.815 91.5197C156.99 91.5162 156.243 91.504 155.574 91.4831C154.772 91.458 154.17 91.4455 153.769 91.4455V86.9321H185.964C187.068 86.9321 188.096 86.5434 189.049 85.7661C190.001 84.9888 190.553 84.0736 190.703 83.0204C190.804 82.1679 190.779 81.4157 190.628 80.7637C190.528 80.3124 190.377 79.8736 190.177 79.4473C189.976 79.021 189.751 78.6324 189.5 78.2813C189.149 77.8801 188.748 77.6043 188.296 77.4539C187.845 77.3034 187.394 77.1781 186.942 77.0778C186.491 76.9273 186.027 76.827 185.551 76.7769C185.074 76.7267 184.61 76.7016 184.159 76.7016H184.009C183.758 76.7518 183.494 76.7643 183.219 76.7393C182.943 76.7142 182.68 76.7016 182.429 76.7016H149.932C149.531 76.7518 149.18 76.7769 148.879 76.7769C148.578 76.827 148.29 76.8521 148.014 76.8521C147.738 76.8521 147.5 76.8772 147.299 76.9273C146.547 77.0276 145.945 77.2533 145.494 77.6043C145.043 77.9554 144.591 78.4819 144.14 79.184C143.99 79.4849 143.864 79.8736 143.764 80.35C143.664 80.8264 143.588 81.3028 143.538 81.7792C143.488 82.2557 143.463 82.6945 143.463 83.0957V104.873C143.463 105.5 143.501 106.252 143.576 107.13C143.651 108.007 143.814 108.885 144.065 109.762C144.315 110.64 144.692 111.38 145.193 111.982C145.745 112.633 146.422 113.148 147.224 113.524C148.027 113.9 148.879 114.188 149.782 114.389C150.684 114.589 151.612 114.715 152.565 114.765C153.518 114.815 154.395 114.84 155.198 114.84H182.73ZM187.093 130.787C183.432 130.938 179.821 130.988 176.26 130.938C172.7 130.888 169.24 130.863 165.88 130.863C164.074 130.863 162.231 130.875 160.351 130.9C158.47 130.925 156.665 130.938 154.935 130.938H150.007C148.453 130.938 147.124 130.913 146.021 130.863C145.218 130.813 144.428 130.7 143.651 130.524C142.874 130.349 142.184 130.098 141.582 129.772C140.981 129.446 140.492 128.982 140.115 128.38C139.739 127.779 139.551 126.976 139.551 125.973C139.551 124.97 139.877 124.093 140.529 123.34C140.93 122.939 141.432 122.638 142.034 122.438C142.635 122.237 143.212 122.087 143.764 121.986C144.315 121.886 144.804 121.836 145.231 121.836H145.945L187.845 121.911C189.149 121.911 190.34 121.924 191.418 121.949C192.496 121.974 193.462 122.337 194.314 123.039C195.367 123.992 195.894 125.07 195.894 126.274C195.894 127.026 195.668 127.716 195.217 128.343C194.766 128.97 194.164 129.408 193.411 129.659C192.408 130.06 191.368 130.336 190.29 130.487C189.211 130.637 188.146 130.737 187.093 130.787Z" fill="url(#paint0_linear)"/>
<circle cx="112.853" cy="97.5209" r="1.75" fill="#FEFF4D"/>
<circle cx="67.6969" cy="79.5209" r="1.75" fill="#4DD9FF"/>
<circle cx="61.9469" cy="43.7709" r="1" fill="#B5EFFF"/>
<circle cx="104.947" cy="13.7709" r="1" fill="#F54949"/>
<circle cx="170.947" cy="29.7709" r="2" fill="#1EC89B"/>
<path fill-rule="evenodd" clip-rule="evenodd" d="M89.6499 244.085C85.3269 249.937 81.3368 253.466 79.7432 252.506C78.1497 251.546 79.4052 246.369 82.5591 239.812C75.3518 243.093 69.583 244.371 68.6322 242.653C67.4311 240.482 74.3747 234.353 84.1412 228.962C86.3542 227.74 88.5222 226.661 90.566 225.749C91.4733 220.628 92.8696 217.305 94.3791 217.334C95.1437 217.348 95.8482 218.222 96.4509 219.75C98.2831 218.129 99.7578 217.416 100.586 217.915C101.414 218.414 101.473 220.051 100.896 222.428C102.528 222.247 103.63 222.461 104 223.13C104.731 224.451 102.445 227.239 98.3419 230.434C98.49 232.667 98.5493 235.088 98.5035 237.616C98.3012 248.769 96.1267 257.773 93.6465 257.725C91.6834 257.687 90.1172 251.99 89.6499 244.085Z" fill="#27C527"/>
<path fill-rule="evenodd" clip-rule="evenodd" d="M63.4274 252.863C58.2541 254.142 53.8923 257.359 51.1441 261.919C45.9945 270.46 47.3776 298.465 47.5505 301.631C47.6082 302.645 48.1621 303.568 49.0339 304.091C49.7381 304.516 50.5745 304.637 51.3574 304.443C51.5436 304.397 51.7256 304.334 51.9031 304.253C54.7824 302.928 80.1922 291.061 85.3416 282.519C91.0148 273.105 87.9606 260.824 78.5335 255.144C73.9666 252.392 68.6006 251.583 63.4274 252.863Z" fill="#EB4548"/>
<path fill-rule="evenodd" clip-rule="evenodd" d="M67.6902 259.133C65.1036 259.773 62.9227 261.381 61.5485 263.661C58.9738 267.932 59.6653 281.934 59.7518 283.517C59.7806 284.024 60.0575 284.486 60.4934 284.748C60.8456 284.96 61.2638 285.02 61.6552 284.923C61.7483 284.9 61.8393 284.869 61.9281 284.828C63.3677 284.166 76.0726 278.232 78.6473 273.961C81.4839 269.254 79.9568 263.114 75.2433 260.274C72.9598 258.898 70.2768 258.493 67.6902 259.133" fill="#FFEB2C"/>
<path d="M160.797 117.985C141.697 106.476 87.421 172.595 59.8531 207.652C59.0987 208.611 59.0974 209.93 59.8596 210.883C65.0242 217.341 76.3189 229.487 89.0065 237.132C101.76 244.817 117.879 249.131 125.96 250.659C127.099 250.874 128.213 250.328 128.741 249.296C148.951 209.844 178.578 128.698 160.797 117.985Z" fill="#F98D0B"/>
<mask id="mask0" style="mask-type:alpha" maskUnits="userSpaceOnUse" x="59" y="116" width="108" height="135">
<path d="M160.797 117.985C141.73 106.496 87.6102 172.365 59.9976 207.468C59.158 208.535 59.1579 210.012 60.0091 211.07C65.2399 217.572 76.44 229.56 89.0065 237.132C101.647 244.748 117.592 249.054 125.743 250.618C127.009 250.861 128.254 250.25 128.841 249.101C149.048 209.577 178.548 128.68 160.797 117.985Z" fill="#E88104"/>
</mask>
<g mask="url(#mask0)">
<path d="M112.859 248.039C159.906 183.016 165.588 138.182 165.031 120.535L166.422 118.226L176.877 131.345L189.084 196.401C179.595 216.212 160.555 256.111 160.307 257.22C160.058 258.329 135.232 260.82 122.85 261.927L112.859 248.039Z" fill="#E6830B"/>
<path d="M67.7727 219.299C116.686 140.189 135.094 134.495 146.993 124.354C111.589 143.937 84.576 188.159 64.0585 220.209L65.4539 223.148L67.7727 219.299Z" fill="#FF981D"/>
</g>
<path d="M53.6391 187.008C57.8076 180.09 87.2356 167.524 95.6476 165.17L64.4008 203.97C58.2452 198.952 49.4706 193.926 53.6391 187.008Z" fill="#F98D0B"/>
<path d="M149.848 244.978C154.017 238.06 152.337 206.75 150.487 198.213L129.823 243.39C137.137 246.487 145.68 251.896 149.848 244.978Z" fill="#D97C09"/>
<ellipse cx="130.692" cy="167.95" rx="20.2183" ry="20.1926" transform="rotate(31.0706 130.692 167.95)" fill="#6C3924"/>
<path fill-rule="evenodd" clip-rule="evenodd" d="M117.274 167.332C117.274 167.332 113.8 166.306 110.261 163.545C105.873 160.124 110.52 153.196 115.202 156.181C116.22 156.83 117.223 157.669 118.171 158.747C124.23 165.636 117.274 167.332 117.274 167.332" fill="#E9E9E9"/>
<path fill-rule="evenodd" clip-rule="evenodd" d="M118.627 166.266C118.627 166.266 114.414 165.105 111.061 161.634C109.365 159.879 110.904 156.952 113.265 157.439C114.899 157.778 116.75 158.594 118.506 160.336C123.247 165.039 118.627 166.266 118.627 166.266" fill="#EACAC2"/>
<path fill-rule="evenodd" clip-rule="evenodd" d="M138.952 157.841C138.952 157.841 140.871 154.769 141.69 150.357C142.705 144.886 134.631 142.782 133.107 148.121C132.776 149.281 132.581 150.574 132.587 152.009C132.62 161.183 138.952 157.841 138.952 157.841" fill="#E9E9E9"/>
<path fill-rule="evenodd" clip-rule="evenodd" d="M137.13 158.292C137.13 158.292 139.513 154.63 139.721 149.808C139.825 147.37 136.732 146.2 135.29 148.131C134.29 149.467 133.446 151.305 133.286 153.772C132.858 160.437 137.13 158.292 137.13 158.292" fill="#EACAC2"/>
<path fill-rule="evenodd" clip-rule="evenodd" d="M111.798 175.235C107.858 164.942 112.98 153.417 123.237 149.491C133.493 145.566 145.002 150.726 148.941 161.019C152.88 171.311 146.474 179.479 136.217 183.405C125.96 187.33 115.737 185.527 111.798 175.235" fill="#E9E9E9"/>
<path fill-rule="evenodd" clip-rule="evenodd" d="M115.089 174.332C112.176 166.722 116.71 157.914 125.215 154.659C133.719 151.404 142.975 154.934 145.888 162.544C148.801 170.154 143.317 176.479 134.812 179.734C126.307 182.989 118.002 181.942 115.089 174.332" fill="#EDDECE"/>
<path d="M126.992 163.977L126.848 164.645L127.4 165.043" stroke="#40210F" stroke-width="0.5" stroke-linecap="round"/>
<path fill-rule="evenodd" clip-rule="evenodd" d="M144.789 165.071C145.606 167.204 144.578 169.579 142.493 170.377C140.409 171.174 138.057 170.093 137.24 167.96C136.424 165.827 137.453 163.451 139.537 162.654C141.622 161.856 143.973 162.938 144.789 165.071" fill="#EACAC2"/>
<path fill-rule="evenodd" clip-rule="evenodd" d="M124.928 172.672C125.744 174.805 124.716 177.181 122.631 177.979C120.546 178.777 118.195 177.695 117.379 175.562C116.562 173.429 117.59 171.054 119.675 170.256C121.76 169.458 124.111 170.54 124.928 172.672" fill="#EACAC2"/>
<path fill-rule="evenodd" clip-rule="evenodd" d="M134.637 159.744C134.871 160.355 134.576 161.036 133.978 161.265C133.38 161.494 132.706 161.183 132.472 160.572C132.238 159.961 132.533 159.28 133.131 159.051C133.728 158.822 134.403 159.133 134.637 159.744" fill="#40210F"/>
<path fill-rule="evenodd" clip-rule="evenodd" d="M121.852 164.637C122.086 165.248 121.791 165.93 121.194 166.158C120.595 166.387 119.921 166.077 119.687 165.466C119.453 164.854 119.748 164.173 120.346 163.944C120.944 163.715 121.618 164.026 121.852 164.637" fill="#40210F"/>
<path fill-rule="evenodd" clip-rule="evenodd" d="M124.838 170.428L133.968 166.933C133.968 166.933 136.207 172.782 131.851 174.45C127.076 176.277 124.838 170.428 124.838 170.428" fill="#BC173D"/>
<path fill-rule="evenodd" clip-rule="evenodd" d="M130.773 169.296C130.668 169.538 130.028 169.802 129.801 169.668C129.575 169.533 129.353 168.699 129.353 168.699L130.469 168.272C130.469 168.272 130.878 169.054 130.773 169.296" fill="#FFFDFD"/>
<path fill-rule="evenodd" clip-rule="evenodd" d="M129.731 169.695C129.626 169.937 128.986 170.201 128.759 170.067C128.533 169.932 128.311 169.098 128.311 169.098L129.426 168.671C129.426 168.671 129.835 169.453 129.731 169.695" fill="#FFFDFD"/>
<path fill-rule="evenodd" clip-rule="evenodd" d="M122.319 156.066C122.319 156.066 122.045 158.399 123.55 159.281C123.55 159.281 123.341 157.941 124.369 157.125C124.369 157.125 125.767 158.512 129.604 156.963C129.604 156.963 127.463 155.916 127.752 153.987C127.752 153.987 125.143 153.971 122.319 156.066" fill="#40210F"/>
<defs>
<linearGradient id="paint0_linear" x1="-48.1528" y1="-38.8784" x2="-44.781" y2="186.442" gradientUnits="userSpaceOnUse">
<stop stop-color="#1E1847"/>
<stop offset="1" stop-color="#497FF5"/>
</linearGradient>
</defs>
</svg>
