<svg width="121" height="125" viewBox="0 0 121 125" fill="none" xmlns="http://www.w3.org/2000/svg">
<g filter="url(#filter0_dddddd)">
<circle cx="60.5" cy="37.5" r="37.5" fill="#FDEA5F"/>
<circle cx="60.5" cy="37.5" r="36.115" stroke="#F0D932" stroke-width="2.76997"/>
</g>
<mask id="mask0" style="mask-type:alpha" maskUnits="userSpaceOnUse" x="23" y="0" width="75" height="75">
<circle cx="60.5" cy="37.5" r="37.5" fill="#FDEA5F"/>
</mask>
<g mask="url(#mask0)">
<rect x="20.6841" y="54.2269" width="81.6015" height="21.0518" transform="rotate(-40.2492 20.6841 54.2269)" fill="url(#paint0_linear)"/>
</g>
<g filter="url(#filter1_i)">
<path fill-rule="evenodd" clip-rule="evenodd" d="M58.7986 17.5004C59.1552 15.6642 59.7329 14.4709 60.385 14.4709C61.0371 14.4709 61.6149 15.6644 61.9714 17.5007C63.2713 15.9509 64.4501 15.114 65.0427 15.4561C65.9807 15.9977 65.0948 19.2882 63.064 22.8057C62.8875 23.1114 62.7082 23.4087 62.5273 23.6964C63.4875 25.9923 63.7566 27.8045 63.0818 28.1941C62.7407 28.3911 62.2053 28.1973 61.5643 27.7017C61.2361 28.6294 60.8277 29.1794 60.385 29.1794C59.9424 29.1794 59.534 28.6295 59.2058 27.7019C58.5649 28.1973 58.0296 28.3911 57.6885 28.1941C57.0137 27.8045 57.2828 25.9923 58.243 23.6964C58.0621 23.4087 57.8828 23.1114 57.7063 22.8057C55.6755 19.2882 54.7896 15.9977 55.7276 15.4562C56.3201 15.114 57.4988 15.9508 58.7986 17.5004Z" fill="#FFC702"/>
<path d="M73.172 24.7671C72.4759 39.9313 67.8455 50.947 63.9158 57.1397C62.2461 59.771 58.7673 59.8472 57.182 57.1643C52.5039 49.2471 48.1901 34.6095 47.7959 24.4795C47.7161 22.4294 49.4295 20.8446 51.4812 20.8446L69.3392 20.8446C71.5054 20.8446 73.2714 22.6032 73.172 24.7671Z" fill="#FFC702"/>
</g>
<mask id="mask1" style="mask-type:alpha" maskUnits="userSpaceOnUse" x="36" y="13" width="50" height="50">
<path fill-rule="evenodd" clip-rule="evenodd" d="M58.9561 17.5915C59.3127 15.7554 59.8904 14.562 60.5425 14.562C61.1946 14.562 61.7723 15.7556 62.1289 17.5918C63.4288 16.0421 64.6076 15.2052 65.2002 15.5473C66.1382 16.0889 65.2523 19.3794 63.2215 22.8969C63.045 23.2025 62.8657 23.4999 62.6847 23.7876C63.645 26.0835 63.9141 27.8957 63.2393 28.2853C62.8982 28.4823 62.3627 28.2885 61.7218 27.7929C61.3935 28.7206 60.9851 29.2706 60.5425 29.2706C60.0998 29.2706 59.6914 28.7207 59.3632 27.7931C58.7224 28.2885 58.187 28.4822 57.8459 28.2853C57.1712 27.8957 57.4403 26.0835 58.4005 23.7876C58.2196 23.4999 58.0402 23.2025 57.8638 22.8969C55.833 19.3794 54.947 16.0889 55.885 15.5473C56.4776 15.2052 57.6563 16.042 58.9561 17.5915Z" fill="#FFC702"/>
<path d="M73.3295 24.8583C72.6333 40.0225 68.0029 51.0382 64.0733 57.2309C62.4036 59.8621 58.9248 59.9384 57.3394 57.2554C52.6613 49.3383 48.3476 34.7006 47.9534 24.5707C47.8736 22.5206 49.587 20.9357 51.6387 20.9357L69.4966 20.9357C71.6628 20.9357 73.4288 22.6944 73.3295 24.8583Z" fill="#FFC702"/>
</mask>
<g mask="url(#mask1)">
<rect x="30.6455" y="43.6075" width="52.4316" height="14.9495" transform="rotate(-40.2492 30.6455 43.6075)" fill="url(#paint1_linear)"/>
</g>
<defs>
<filter id="filter0_dddddd" x="0.840242" y="0" width="119.32" height="124.859" filterUnits="userSpaceOnUse" color-interpolation-filters="sRGB">
<feFlood flood-opacity="0" result="BackgroundImageFix"/>
<feColorMatrix in="SourceAlpha" type="matrix" values="0 0 0 0 0 0 0 0 0 0 0 0 0 0 0 0 0 0 127 0" result="hardAlpha"/>
<feOffset dy="0.766522"/>
<feGaussianBlur stdDeviation="0.306609"/>
<feColorMatrix type="matrix" values="0 0 0 0 0 0 0 0 0 0 0 0 0 0 0 0 0 0 0.0196802 0"/>
<feBlend mode="normal" in2="BackgroundImageFix" result="effect1_dropShadow"/>
<feColorMatrix in="SourceAlpha" type="matrix" values="0 0 0 0 0 0 0 0 0 0 0 0 0 0 0 0 0 0 127 0" result="hardAlpha"/>
<feOffset dy="1.84206"/>
<feGaussianBlur stdDeviation="0.736823"/>
<feColorMatrix type="matrix" values="0 0 0 0 0 0 0 0 0 0 0 0 0 0 0 0 0 0 0.0282725 0"/>
<feBlend mode="normal" in2="effect1_dropShadow" result="effect2_dropShadow"/>
<feColorMatrix in="SourceAlpha" type="matrix" values="0 0 0 0 0 0 0 0 0 0 0 0 0 0 0 0 0 0 127 0" result="hardAlpha"/>
<feOffset dy="3.46843"/>
<feGaussianBlur stdDeviation="1.38737"/>
<feColorMatrix type="matrix" values="0 0 0 0 0 0 0 0 0 0 0 0 0 0 0 0 0 0 0.035 0"/>
<feBlend mode="normal" in2="effect2_dropShadow" result="effect3_dropShadow"/>
<feColorMatrix in="SourceAlpha" type="matrix" values="0 0 0 0 0 0 0 0 0 0 0 0 0 0 0 0 0 0 127 0" result="hardAlpha"/>
<feOffset dy="6.18709"/>
<feGaussianBlur stdDeviation="2.47484"/>
<feColorMatrix type="matrix" values="0 0 0 0 0 0 0 0 0 0 0 0 0 0 0 0 0 0 0.0417275 0"/>
<feBlend mode="normal" in2="effect3_dropShadow" result="effect4_dropShadow"/>
<feColorMatrix in="SourceAlpha" type="matrix" values="0 0 0 0 0 0 0 0 0 0 0 0 0 0 0 0 0 0 127 0" result="hardAlpha"/>
<feOffset dy="11.5723"/>
<feGaussianBlur stdDeviation="4.62891"/>
<feColorMatrix type="matrix" values="0 0 0 0 0 0 0 0 0 0 0 0 0 0 0 0 0 0 0.0503198 0"/>
<feBlend mode="normal" in2="effect4_dropShadow" result="effect5_dropShadow"/>
<feColorMatrix in="SourceAlpha" type="matrix" values="0 0 0 0 0 0 0 0 0 0 0 0 0 0 0 0 0 0 127 0" result="hardAlpha"/>
<feOffset dy="27.6997"/>
<feGaussianBlur stdDeviation="11.0799"/>
<feColorMatrix type="matrix" values="0 0 0 0 0 0 0 0 0 0 0 0 0 0 0 0 0 0 0.07 0"/>
<feBlend mode="normal" in2="effect5_dropShadow" result="effect6_dropShadow"/>
<feBlend mode="normal" in="SourceGraphic" in2="effect6_dropShadow" result="shape"/>
</filter>
<filter id="filter1_i" x="36" y="13" width="49.0285" height="49.3055" filterUnits="userSpaceOnUse" color-interpolation-filters="sRGB">
<feFlood flood-opacity="0" result="BackgroundImageFix"/>
<feBlend mode="normal" in="SourceGraphic" in2="BackgroundImageFix" result="shape"/>
<feColorMatrix in="SourceAlpha" type="matrix" values="0 0 0 0 0 0 0 0 0 0 0 0 0 0 0 0 0 0 127 0" result="hardAlpha"/>
<feOffset dy="0.553994"/>
<feGaussianBlur stdDeviation="0.138498"/>
<feComposite in2="hardAlpha" operator="arithmetic" k2="-1" k3="1"/>
<feColorMatrix type="matrix" values="0 0 0 0 0 0 0 0 0 0 0 0 0 0 0 0 0 0 0.09 0"/>
<feBlend mode="normal" in2="shape" result="effect1_innerShadow"/>
</filter>
<linearGradient id="paint0_linear" x1="61.4849" y1="54.2269" x2="61.4849" y2="75.2787" gradientUnits="userSpaceOnUse">
<stop stop-color="white" stop-opacity="0"/>
<stop offset="0.505208" stop-color="white" stop-opacity="0.5"/>
<stop offset="1" stop-color="white" stop-opacity="0"/>
</linearGradient>
<linearGradient id="paint1_linear" x1="56.8613" y1="43.6075" x2="56.8613" y2="58.5569" gradientUnits="userSpaceOnUse">
<stop stop-color="white" stop-opacity="0"/>
<stop offset="0.505208" stop-color="white" stop-opacity="0.3"/>
<stop offset="1" stop-color="white" stop-opacity="0"/>
</linearGradient>
</defs>
</svg>
